<svg width="18" height="18" viewBox="0 0 18 18" fill="none" xmlns="http://www.w3.org/2000/svg">
<path d="M6.47807 4.02191C6.4283 3.97214 6.38881 3.91305 6.36188 3.84801C6.33494 3.78298 6.32107 3.71328 6.32107 3.64289C6.32107 3.5725 6.33494 3.5028 6.36188 3.43777C6.38881 3.37274 6.4283 3.31365 6.47807 3.26387C6.52784 3.2141 6.58693 3.17462 6.65196 3.14768C6.717 3.12074 6.7867 3.10688 6.85709 3.10688C6.92748 3.10688 6.99718 3.12074 7.06221 3.14768C7.12724 3.17462 7.18633 3.2141 7.2361 3.26387L12.5932 8.62102C12.6431 8.67077 12.6826 8.72985 12.7095 8.79489C12.7365 8.85992 12.7504 8.92963 12.7504 9.00003C12.7504 9.07044 12.7365 9.14015 12.7095 9.20518C12.6826 9.27022 12.6431 9.3293 12.5932 9.37905L7.23611 14.7362C7.13558 14.8367 6.99925 14.8932 6.85709 14.8932C6.71493 14.8932 6.57859 14.8367 6.47807 14.7362C6.37755 14.6357 6.32107 14.4993 6.32107 14.3572C6.32107 14.215 6.37755 14.0787 6.47807 13.9782L11.4569 9.00003L6.47807 4.02191Z" fill="black"/>
</svg>
